<?xml version="1.0" encoding="UTF-8"?>
<!-- Created with Inkscape (http://www.inkscape.org/) -->
<svg id="svg1" width="541.87mm" height="541.87mm" version="1.1" viewBox="0 0 541.87 541.87" xmlns="http://www.w3.org/2000/svg">
 <rect id="outline" x="103.36" y="100.86" width="346.64" height="339.14" style="fill:#fbf1e8;stroke-linejoin:round;stroke-width:.86397;stroke:#de8238"/>
 <g id="2001" transform="translate(54.735 32.765)">
  <rect id="rect-2001" x="155.26" y="85.265" width="54.47" height="29.47" style=""/>
  <text id="text-2001" transform="matrix(.26458 0 0 .26458 -1.2518 1.6722)" style="fill:#000000;font-family:Sans;font-size:42.667px;shape-inside:url(#rect4);stroke-linejoin:round;stroke-width:3;white-space:pre" xml:space="preserve"><tspan id="tspan2" x="650.07812" y="386.64292"><tspan id="tspan1" style="font-family:'Segoe UI'">2001</tspan></tspan></text>
 </g>
 <g id="2002" transform="translate(54.735 67.765)">
  <rect id="rect-2002" x="155.26" y="85.265" width="54.47" height="29.47" style=""/>
  <text id="text-2002" transform="matrix(.26458 0 0 .26458 -1.2518 1.6722)" style="fill:#000000;font-family:Sans;font-size:42.667px;shape-inside:url(#rect6);stroke-linejoin:round;stroke-width:3;white-space:pre" xml:space="preserve"><tspan id="tspan4" x="650.07812" y="386.64292"><tspan id="tspan3" style="font-family:'Segoe UI'">2002</tspan></tspan></text>
 </g>
 <g id="2003" transform="translate(54.735 102.76)">
  <rect id="rect-2003" x="155.26" y="85.265" width="54.47" height="29.47" style=""/>
  <text id="text-2003" transform="matrix(.26458 0 0 .26458 -1.2518 1.6722)" style="fill:#000000;font-family:Sans;font-size:42.667px;shape-inside:url(#rect6-3);stroke-linejoin:round;stroke-width:3;white-space:pre" xml:space="preserve"><tspan id="tspan6" x="650.07812" y="386.64292"><tspan id="tspan5" style="font-family:'Segoe UI'">2003</tspan></tspan></text>
 </g>
 <g id="2004" transform="translate(54.735 137.76)">
  <rect id="rect-2004" x="155.26" y="85.265" width="54.47" height="29.47" style=""/>
  <text id="text-2004" transform="matrix(.26458 0 0 .26458 -1.2518 1.6722)" style="fill:#000000;font-family:Sans;font-size:42.667px;shape-inside:url(#rect6-3-3);stroke-linejoin:round;stroke-width:3;white-space:pre" xml:space="preserve"><tspan id="tspan8" x="650.07812" y="386.64292"><tspan id="tspan7" style="font-family:'Segoe UI'">2004</tspan></tspan></text>
 </g>
 <g id="2005" transform="translate(54.735 172.76)">
  <rect id="rect-2005" x="155.26" y="85.265" width="54.47" height="29.47" style=""/>
  <text id="text-2005" transform="matrix(.26458 0 0 .26458 -1.2518 1.6722)" style="fill:#000000;font-family:Sans;font-size:42.667px;shape-inside:url(#rect4-0);stroke-linejoin:round;stroke-width:3;white-space:pre" xml:space="preserve"><tspan id="tspan10" x="650.07812" y="386.64292"><tspan id="tspan9" style="font-family:'Segoe UI'">2005</tspan></tspan></text>
 </g>
 <g id="2006" transform="rotate(-90 266.25 176.78)">
  <rect id="rect-2006" x="155.26" y="85.265" width="54.47" height="29.47" style=""/>
  <text id="text-2006" transform="matrix(0 .26458 -.26458 0 281.57 -84.496)" style="fill:#000000;font-family:Sans;font-size:42.667px;shape-inside:url(#rect6-3-3-7-8);stroke-linejoin:round;stroke-width:3;white-space:pre" xml:space="preserve"><tspan id="tspan12" x="650.07812" y="386.64292"><tspan id="tspan11" style="font-family:'Segoe UI'">2006</tspan></tspan></text>
 </g>
 <g id="2007" transform="rotate(-90 248.75 194.28)">
  <rect id="rect-2007" x="155.26" y="85.265" width="54.47" height="29.47" style=""/>
  <text id="text-2007" transform="matrix(0 .26458 -.26458 0 280.83 -83.752)" style="fill:#000000;font-family:Sans;font-size:42.667px;shape-inside:url(#rect6-3-2-6);stroke-linejoin:round;stroke-width:3;white-space:pre" xml:space="preserve"><tspan id="tspan14" x="650.07812" y="386.64292"><tspan id="tspan13" style="font-family:'Segoe UI'">2007</tspan></tspan></text>
 </g>
 <g id="2008" transform="rotate(-90 313.75 259.28)">
  <rect id="rect-2008" x="155.26" y="85.265" width="54.47" height="29.47" style=""/>
  <text id="text-2008" transform="matrix(0 .26458 -.26458 0 280.83 -83.752)" style="fill:#000000;font-family:Sans;font-size:42.667px;shape-inside:url(#rect6-3-2-6-4);stroke-linejoin:round;stroke-width:3;white-space:pre" xml:space="preserve"><tspan id="tspan16" x="650.07812" y="386.64292"><tspan id="tspan15" style="font-family:'Segoe UI'">2008</tspan></tspan></text>
 </g>
 <g id="2009" transform="rotate(-90 331.25 241.78)">
  <rect id="rect-2009" x="155.26" y="85.265" width="54.47" height="29.47" style=""/>
  <text id="text-2009" transform="matrix(0 .26458 -.26458 0 281.57 -84.496)" style="fill:#000000;font-family:Sans;font-size:42.667px;shape-inside:url(#rect6-3-3-7-8-7);stroke-linejoin:round;stroke-width:3;white-space:pre" xml:space="preserve"><tspan id="tspan18" x="650.07812" y="386.64292"><tspan id="tspan17" style="font-family:'Segoe UI'">2009</tspan></tspan></text>
 </g>
 <g id="2010" transform="translate(54.735 277.76)">
  <rect id="rect-2010" x="155.26" y="85.265" width="54.47" height="29.47" style=""/>
  <text id="text-2010" transform="matrix(.26458 0 0 .26458 -1.2518 1.6722)" style="fill:#000000;font-family:Sans;font-size:42.667px;shape-inside:url(#rect6-3-3-3);stroke-linejoin:round;stroke-width:3;white-space:pre" xml:space="preserve"><tspan id="tspan20" x="650.07812" y="386.64292"><tspan id="tspan19" style="font-family:'Segoe UI'">2010</tspan></tspan></text>
 </g>
 <g id="2011" transform="rotate(-90 391.12 181.65)">
  <rect id="rect-2011" x="155.26" y="85.265" width="54.47" height="29.47" style=""/>
  <text id="text-2011" transform="matrix(0 .26458 -.26458 0 281.6 -84.523)" style="fill:#000000;font-family:Sans;font-size:42.667px;shape-inside:url(#rect4-3-8-5);stroke-linejoin:round;stroke-width:3;white-space:pre" xml:space="preserve"><tspan id="tspan22" x="650.07812" y="386.64292"><tspan id="tspan21" style="font-family:'Segoe UI'">2011</tspan></tspan></text>
 </g>
 <g id="2012" transform="rotate(-90 408.62 164.15)">
  <rect id="rect-2012" x="155.26" y="85.265" width="54.47" height="29.47" style=""/>
  <text id="text-2012" transform="matrix(0 .26458 -.26458 0 281.64 -84.568)" style="fill:#000000;font-family:Sans;font-size:42.667px;shape-inside:url(#rect6-4-7-0);stroke-linejoin:round;stroke-width:3;white-space:pre" xml:space="preserve"><tspan id="tspan24" x="650.07812" y="386.64292"><tspan id="tspan23" style="font-family:'Segoe UI'">2012</tspan></tspan></text>
 </g>
 <g id="2013" transform="translate(214.21 257.76)">
  <rect id="rect-2013" x="155.26" y="85.265" width="54.47" height="29.47" style=""/>
  <text id="text-2013" transform="matrix(.26458 0 0 .26458 -1.2518 1.6722)" style="fill:#000000;font-family:Sans;font-size:42.667px;shape-inside:url(#rect6-3-9);stroke-linejoin:round;stroke-width:3;white-space:pre" xml:space="preserve"><tspan id="tspan26" x="650.07812" y="386.64292"><tspan id="tspan25" style="font-family:'Segoe UI'">2013</tspan></tspan></text>
 </g>
 <g id="2014" transform="translate(214.21 222.76)">
  <rect id="rect-2014" x="155.26" y="85.265" width="54.47" height="29.47" style=""/>
  <text id="text-2014" transform="matrix(.26458 0 0 .26458 -1.2518 1.6722)" style="fill:#000000;font-family:Sans;font-size:42.667px;shape-inside:url(#rect6-31);stroke-linejoin:round;stroke-width:3;white-space:pre" xml:space="preserve"><tspan id="tspan28" x="650.07812" y="386.64292"><tspan id="tspan27" style="font-family:'Segoe UI'">2014</tspan></tspan></text>
 </g>
 <g id="2015" transform="rotate(-90 356.12 111.38)">
  <rect id="rect-2015" x="155.26" y="85.265" width="54.47" height="29.47" style=""/>
  <text id="text-2015" transform="matrix(0 .26458 -.26458 0 281.64 -84.568)" style="fill:#000000;font-family:Sans;font-size:42.667px;shape-inside:url(#rect6-4-7);stroke-linejoin:round;stroke-width:3;white-space:pre" xml:space="preserve"><tspan id="tspan30" x="650.07812" y="386.64292"><tspan id="tspan29" style="font-family:'Segoe UI'">2015</tspan></tspan></text>
 </g>
 <g id="2016" transform="rotate(-90 338.62 128.88)">
  <rect id="rect-2016" x="155.26" y="85.265" width="54.47" height="29.47" style=""/>
  <text id="text-2016" transform="matrix(0 .26458 -.26458 0 281.6 -84.523)" style="fill:#000000;font-family:Sans;font-size:42.667px;shape-inside:url(#rect4-3-8);stroke-linejoin:round;stroke-width:3;white-space:pre" xml:space="preserve"><tspan id="tspan32" x="650.07812" y="386.64292"><tspan id="tspan31" style="font-family:'Segoe UI'">2016</tspan></tspan></text>
 </g>
 <g id="2017" transform="translate(140 137.5)">
  <rect id="rect-2017" x="155.26" y="85.265" width="54.47" height="29.47" style=""/>
  <text id="text-2017" transform="matrix(.26458 0 0 .26458 -1.2518 1.6722)" style="fill:#000000;font-family:Sans;font-size:42.667px;shape-inside:url(#rect6-3-3-7);stroke-linejoin:round;stroke-width:3;white-space:pre" xml:space="preserve"><tspan id="tspan34" x="650.07812" y="386.64292"><tspan id="tspan33" style="font-family:'Segoe UI'">2017</tspan></tspan></text>
 </g>
 <g id="2018" transform="translate(140 102.5)">
  <rect id="rect-2018" x="155.26" y="85.265" width="54.47" height="29.47" style=""/>
  <text id="text-2018" transform="matrix(.26458 0 0 .26458 -1.2518 1.6722)" style="fill:#000000;font-family:Sans;font-size:42.667px;shape-inside:url(#rect6-3-2);stroke-linejoin:round;stroke-width:3;white-space:pre" xml:space="preserve"><tspan id="tspan36" x="650.07812" y="386.64292"><tspan id="tspan35" style="font-family:'Segoe UI'">2018</tspan></tspan></text>
 </g>
 <g id="2019" transform="translate(140 67.5)">
  <rect id="rect-2019" x="155.26" y="85.265" width="54.47" height="29.47" style=""/>
  <text id="text-2019" transform="matrix(.26458 0 0 .26458 -1.2518 1.6722)" style="fill:#000000;font-family:Sans;font-size:42.667px;shape-inside:url(#rect6-4);stroke-linejoin:round;stroke-width:3;white-space:pre" xml:space="preserve"><tspan id="tspan38" x="650.07812" y="386.64292"><tspan id="tspan37" style="font-family:'Segoe UI'">2019</tspan></tspan></text>
 </g>
 <g id="2020" transform="translate(140 32.5)">
  <rect id="rect-2020" x="155.26" y="85.265" width="54.47" height="29.47" style=""/>
  <text id="text-2020" transform="matrix(.26458 0 0 .26458 -1.2518 1.6722)" style="fill:#000000;font-family:Sans;font-size:42.667px;shape-inside:url(#rect4-3);stroke-linejoin:round;stroke-width:3;white-space:pre" xml:space="preserve"><tspan id="tspan40" x="650.07812" y="386.64292"><tspan id="tspan39" style="font-family:'Segoe UI'">2020</tspan></tspan></text>
 </g>
</svg>
