<?xml version="1.0" encoding="UTF-8"?>
<!-- Created with Inkscape (http://www.inkscape.org/) -->
<svg id="svg1" width="541.87mm" height="541.87mm" version="1.1" viewBox="0 0 541.87 541.87" xmlns="http://www.w3.org/2000/svg">
 <rect id="outline" x="103.36" y="100.86" width="346.64" height="339.14" style="fill:#fbf1e8;stroke-linejoin:round;stroke-width:.86397;stroke:#de8238"/>
 <g id="3001" transform="translate(54.735 32.765)">
  <rect id="rect-3001" x="155.26" y="85.265" width="54.47" height="29.47" style=""/>
  <text id="text-3001" transform="matrix(.26458 0 0 .26458 -1.2518 1.6722)" style="fill:#000000;font-family:Sans;font-size:42.667px;shape-inside:url(#rect4);stroke-linejoin:round;stroke-width:3;white-space:pre" xml:space="preserve"><tspan id="tspan2" x="650.07812" y="386.64292"><tspan id="tspan1" style="font-family:'Segoe UI'">3001</tspan></tspan></text>
 </g>
 <g id="3002" transform="translate(54.735 67.765)">
  <rect id="rect-3002" x="155.26" y="85.265" width="54.47" height="29.47" style=""/>
  <text id="text-3002" transform="matrix(.26458 0 0 .26458 -1.2518 1.6722)" style="fill:#000000;font-family:Sans;font-size:42.667px;shape-inside:url(#rect6);stroke-linejoin:round;stroke-width:3;white-space:pre" xml:space="preserve"><tspan id="tspan4" x="650.07812" y="386.64292"><tspan id="tspan3" style="font-family:'Segoe UI'">3002</tspan></tspan></text>
 </g>
 <g id="3003" transform="translate(54.735 102.76)">
  <rect id="rect-3003" x="155.26" y="85.265" width="54.47" height="29.47" style=""/>
  <text id="text-3003" transform="matrix(.26458 0 0 .26458 -1.2518 1.6722)" style="fill:#000000;font-family:Sans;font-size:42.667px;shape-inside:url(#rect6-3);stroke-linejoin:round;stroke-width:3;white-space:pre" xml:space="preserve"><tspan id="tspan6" x="650.07812" y="386.64292"><tspan id="tspan5" style="font-family:'Segoe UI'">3003</tspan></tspan></text>
 </g>
 <g id="3004" transform="translate(54.735 137.76)">
  <rect id="rect-3004" x="155.26" y="85.265" width="54.47" height="29.47" style=""/>
  <text id="text-3004" transform="matrix(.26458 0 0 .26458 -1.2518 1.6722)" style="fill:#000000;font-family:Sans;font-size:42.667px;shape-inside:url(#rect6-3-3);stroke-linejoin:round;stroke-width:3;white-space:pre" xml:space="preserve"><tspan id="tspan8" x="650.07812" y="386.64292"><tspan id="tspan7" style="font-family:'Segoe UI'">3004</tspan></tspan></text>
 </g>
 <g id="3005" transform="translate(54.735 172.76)">
  <rect id="rect-3005" x="155.26" y="85.265" width="54.47" height="29.47" style=""/>
  <text id="text-3005" transform="matrix(.26458 0 0 .26458 -1.2518 1.6722)" style="fill:#000000;font-family:Sans;font-size:42.667px;shape-inside:url(#rect4-0);stroke-linejoin:round;stroke-width:3;white-space:pre" xml:space="preserve"><tspan id="tspan10" x="650.07812" y="386.64292"><tspan id="tspan9" style="font-family:'Segoe UI'">3005</tspan></tspan></text>
 </g>
 <g id="3006" transform="rotate(-90 266.25 176.78)">
  <rect id="rect-3006" x="155.26" y="85.265" width="54.47" height="29.47" style=""/>
  <text id="text-3006" transform="matrix(0 .26458 -.26458 0 281.57 -84.496)" style="fill:#000000;font-family:Sans;font-size:42.667px;shape-inside:url(#rect6-3-3-7-8);stroke-linejoin:round;stroke-width:3;white-space:pre" xml:space="preserve"><tspan id="tspan12" x="650.07812" y="386.64292"><tspan id="tspan11" style="font-family:'Segoe UI'">3006</tspan></tspan></text>
 </g>
 <g id="3007" transform="rotate(-90 248.75 194.28)">
  <rect id="rect-3007" x="155.26" y="85.265" width="54.47" height="29.47" style=""/>
  <text id="text-3007" transform="matrix(0 .26458 -.26458 0 280.83 -83.752)" style="fill:#000000;font-family:Sans;font-size:42.667px;shape-inside:url(#rect6-3-2-6);stroke-linejoin:round;stroke-width:3;white-space:pre" xml:space="preserve"><tspan id="tspan14" x="650.07812" y="386.64292"><tspan id="tspan13" style="font-family:'Segoe UI'">3007</tspan></tspan></text>
 </g>
 <g id="3008" transform="rotate(-90 313.75 259.28)">
  <rect id="rect-3008" x="155.26" y="85.265" width="54.47" height="29.47" style=""/>
  <text id="text-3008" transform="matrix(0 .26458 -.26458 0 280.83 -83.752)" style="fill:#000000;font-family:Sans;font-size:42.667px;shape-inside:url(#rect6-3-2-6-4);stroke-linejoin:round;stroke-width:3;white-space:pre" xml:space="preserve"><tspan id="tspan16" x="650.07812" y="386.64292"><tspan id="tspan15" style="font-family:'Segoe UI'">3008</tspan></tspan></text>
 </g>
 <g id="3009" transform="rotate(-90 331.25 241.78)">
  <rect id="rect-3009" x="155.26" y="85.265" width="54.47" height="29.47" style=""/>
  <text id="text-3009" transform="matrix(0 .26458 -.26458 0 281.57 -84.496)" style="fill:#000000;font-family:Sans;font-size:42.667px;shape-inside:url(#rect6-3-3-7-8-7);stroke-linejoin:round;stroke-width:3;white-space:pre" xml:space="preserve"><tspan id="tspan18" x="650.07812" y="386.64292"><tspan id="tspan17" style="font-family:'Segoe UI'">3009</tspan></tspan></text>
 </g>
 <g id="3010" transform="translate(54.735 277.76)">
  <rect id="rect-3010" x="155.26" y="85.265" width="54.47" height="29.47" style=""/>
  <text id="text-3010" transform="matrix(.26458 0 0 .26458 -1.2518 1.6722)" style="fill:#000000;font-family:Sans;font-size:42.667px;shape-inside:url(#rect6-3-3-3);stroke-linejoin:round;stroke-width:3;white-space:pre" xml:space="preserve"><tspan id="tspan20" x="650.07812" y="386.64292"><tspan id="tspan19" style="font-family:'Segoe UI'">3010</tspan></tspan></text>
 </g>
 <g id="3011" transform="rotate(-90 391.12 181.65)">
  <rect id="rect-3011" x="155.26" y="85.265" width="54.47" height="29.47" style=""/>
  <text id="text-3011" transform="matrix(0 .26458 -.26458 0 281.6 -84.523)" style="fill:#000000;font-family:Sans;font-size:42.667px;shape-inside:url(#rect4-3-8-5);stroke-linejoin:round;stroke-width:3;white-space:pre" xml:space="preserve"><tspan id="tspan22" x="650.07812" y="386.64292"><tspan id="tspan21" style="font-family:'Segoe UI'">3011</tspan></tspan></text>
 </g>
 <g id="3012" transform="rotate(-90 408.62 164.15)">
  <rect id="rect-3012" x="155.26" y="85.265" width="54.47" height="29.47" style=""/>
  <text id="text-3012" transform="matrix(0 .26458 -.26458 0 281.64 -84.568)" style="fill:#000000;font-family:Sans;font-size:42.667px;shape-inside:url(#rect6-4-7-0);stroke-linejoin:round;stroke-width:3;white-space:pre" xml:space="preserve"><tspan id="tspan24" x="650.07812" y="386.64292"><tspan id="tspan23" style="font-family:'Segoe UI'">3012</tspan></tspan></text>
 </g>
 <g id="3013" transform="translate(214.21 257.76)">
  <rect id="rect-3013" x="155.26" y="85.265" width="54.47" height="29.47" style=""/>
  <text id="text-3013" transform="matrix(.26458 0 0 .26458 -1.2518 1.6722)" style="fill:#000000;font-family:Sans;font-size:42.667px;shape-inside:url(#rect6-3-9);stroke-linejoin:round;stroke-width:3;white-space:pre" xml:space="preserve"><tspan id="tspan26" x="650.07812" y="386.64292"><tspan id="tspan25" style="font-family:'Segoe UI'">3013</tspan></tspan></text>
 </g>
 <g id="3014" transform="translate(214.21 222.76)">
  <rect id="rect-3014" x="155.26" y="85.265" width="54.47" height="29.47" style=""/>
  <text id="text-3014" transform="matrix(.26458 0 0 .26458 -1.2518 1.6722)" style="fill:#000000;font-family:Sans;font-size:42.667px;shape-inside:url(#rect6-31);stroke-linejoin:round;stroke-width:3;white-space:pre" xml:space="preserve"><tspan id="tspan28" x="650.07812" y="386.64292"><tspan id="tspan27" style="font-family:'Segoe UI'">3014</tspan></tspan></text>
 </g>
 <g id="3015" transform="rotate(-90 356.12 111.38)">
  <rect id="rect-3015" x="155.26" y="85.265" width="54.47" height="29.47" style=""/>
  <text id="text-3015" transform="matrix(0 .26458 -.26458 0 281.64 -84.568)" style="fill:#000000;font-family:Sans;font-size:42.667px;shape-inside:url(#rect6-4-7);stroke-linejoin:round;stroke-width:3;white-space:pre" xml:space="preserve"><tspan id="tspan30" x="650.07812" y="386.64292"><tspan id="tspan29" style="font-family:'Segoe UI'">3015</tspan></tspan></text>
 </g>
 <g id="3016" transform="rotate(-90 338.62 128.88)">
  <rect id="rect-3016" x="155.26" y="85.265" width="54.47" height="29.47" style=""/>
  <text id="text-3016" transform="matrix(0 .26458 -.26458 0 281.6 -84.523)" style="fill:#000000;font-family:Sans;font-size:42.667px;shape-inside:url(#rect4-3-8);stroke-linejoin:round;stroke-width:3;white-space:pre" xml:space="preserve"><tspan id="tspan32" x="650.07812" y="386.64292"><tspan id="tspan31" style="font-family:'Segoe UI'">3016</tspan></tspan></text>
 </g>
 <g id="3017" transform="translate(140 137.5)">
  <rect id="rect-3017" x="155.26" y="85.265" width="54.47" height="29.47" style=""/>
  <text id="text-3017" transform="matrix(.26458 0 0 .26458 -1.2518 1.6722)" style="fill:#000000;font-family:Sans;font-size:42.667px;shape-inside:url(#rect6-3-3-7);stroke-linejoin:round;stroke-width:3;white-space:pre" xml:space="preserve"><tspan id="tspan34" x="650.07812" y="386.64292"><tspan id="tspan33" style="font-family:'Segoe UI'">3017</tspan></tspan></text>
 </g>
 <g id="3018" transform="translate(140 102.5)">
  <rect id="rect-3018" x="155.26" y="85.265" width="54.47" height="29.47" style=""/>
  <text id="text-3018" transform="matrix(.26458 0 0 .26458 -1.2518 1.6722)" style="fill:#000000;font-family:Sans;font-size:42.667px;shape-inside:url(#rect6-3-2);stroke-linejoin:round;stroke-width:3;white-space:pre" xml:space="preserve"><tspan id="tspan36" x="650.07812" y="386.64292"><tspan id="tspan35" style="font-family:'Segoe UI'">3018</tspan></tspan></text>
 </g>
 <g id="3019" transform="translate(140 67.5)">
  <rect id="rect-3019" x="155.26" y="85.265" width="54.47" height="29.47" style=""/>
  <text id="text-3019" transform="matrix(.26458 0 0 .26458 -1.2518 1.6722)" style="fill:#000000;font-family:Sans;font-size:42.667px;shape-inside:url(#rect6-4);stroke-linejoin:round;stroke-width:3;white-space:pre" xml:space="preserve"><tspan id="tspan38" x="650.07812" y="386.64292"><tspan id="tspan37" style="font-family:'Segoe UI'">3019</tspan></tspan></text>
 </g>
 <g id="3020" transform="translate(140 32.5)">
  <rect id="rect-3020" x="155.26" y="85.265" width="54.47" height="29.47" style=""/>
  <text id="text-3020" transform="matrix(.26458 0 0 .26458 -1.2518 1.6722)" style="fill:#000000;font-family:Sans;font-size:42.667px;shape-inside:url(#rect4-3);stroke-linejoin:round;stroke-width:3;white-space:pre" xml:space="preserve"><tspan id="tspan40" x="650.07812" y="386.64292"><tspan id="tspan39" style="font-family:'Segoe UI'">3020</tspan></tspan></text>
 </g>
</svg>
