<?xml version="1.0" encoding="UTF-8"?>
<!-- Created with Inkscape (http://www.inkscape.org/) -->
<svg id="svg1" width="541.87mm" height="541.87mm" version="1.1" viewBox="0 0 541.87 541.87" xmlns="http://www.w3.org/2000/svg">
 <rect id="outline" x="103.36" y="100.86" width="346.64" height="339.14" style="fill:#fbf1e8;stroke-linejoin:round;stroke-width:.86397;stroke:#de8238"/>
 <g id="1001" transform="translate(10.432 45.432)">
  <rect id="rect-1001" x="155.26" y="85.265" width="54.47" height="29.47" style=""/>
  <text id="text-1001" transform="matrix(.26458 0 0 .26458 -1.2518 1.6722)" style="fill:#000000;font-family:Sans;font-size:42.667px;shape-inside:url(#rect4);stroke-linejoin:round;stroke-width:3;white-space:pre" xml:space="preserve"><tspan id="tspan2" x="650.07812" y="386.64292"><tspan id="tspan1" style="font-family:'Segoe UI'">1001</tspan></tspan></text>
 </g>
 <g id="1002" transform="translate(10.432 80.432)">
  <rect id="rect-1002" x="155.26" y="85.265" width="54.47" height="29.47" style=""/>
  <text id="text-1002" transform="matrix(.26458 0 0 .26458 -1.2518 1.6722)" style="fill:#000000;font-family:Sans;font-size:42.667px;shape-inside:url(#rect6);stroke-linejoin:round;stroke-width:3;white-space:pre" xml:space="preserve"><tspan id="tspan4" x="650.07812" y="386.64292"><tspan id="tspan3" style="font-family:'Segoe UI'">1002</tspan></tspan></text>
 </g>
 <g id="1003" transform="translate(10.432 115.43)">
  <rect id="rect-1003" x="155.26" y="85.265" width="54.47" height="29.47" style=""/>
  <text id="text-1003" transform="matrix(.26458 0 0 .26458 -1.2518 1.6722)" style="fill:#000000;font-family:Sans;font-size:42.667px;shape-inside:url(#rect6-3);stroke-linejoin:round;stroke-width:3;white-space:pre" xml:space="preserve"><tspan id="tspan6" x="650.07812" y="386.64292"><tspan id="tspan5" style="font-family:'Segoe UI'">1003</tspan></tspan></text>
 </g>
 <g id="1004" transform="translate(10.432 150.43)">
  <rect id="rect-1004" x="155.26" y="85.265" width="54.47" height="29.47" style=""/>
  <text id="text-1004" transform="matrix(.26458 0 0 .26458 -1.2518 1.6722)" style="fill:#000000;font-family:Sans;font-size:42.667px;shape-inside:url(#rect6-3-3);stroke-linejoin:round;stroke-width:3;white-space:pre" xml:space="preserve"><tspan id="tspan8" x="650.07812" y="386.64292"><tspan id="tspan7" style="font-family:'Segoe UI'">1004</tspan></tspan></text>
 </g>
 <g id="1005" transform="translate(10.432 185.43)">
  <rect id="rect-1005" x="155.26" y="85.265" width="54.47" height="29.47" style=""/>
  <text id="text-1005" transform="matrix(.26458 0 0 .26458 -1.2518 1.6722)" style="fill:#000000;font-family:Sans;font-size:42.667px;shape-inside:url(#rect4-0);stroke-linejoin:round;stroke-width:3;white-space:pre" xml:space="preserve"><tspan id="tspan10" x="650.07812" y="386.64292"><tspan id="tspan9" style="font-family:'Segoe UI'">1005</tspan></tspan></text>
 </g>
 <g id="1006" transform="translate(10.432 220.43)">
  <rect id="rect-1006" x="155.26" y="85.265" width="54.47" height="29.47" style=""/>
  <text id="text-1006" transform="matrix(.26458 0 0 .26458 -1.2518 1.6722)" style="fill:#000000;font-family:Sans;font-size:42.667px;shape-inside:url(#rect6-31);stroke-linejoin:round;stroke-width:3;white-space:pre" xml:space="preserve"><tspan id="tspan12" x="650.07812" y="386.64292"><tspan id="tspan11" style="font-family:'Segoe UI'">1006</tspan></tspan></text>
 </g>
 <g id="1007" transform="translate(10.432 255.43)">
  <rect id="rect-1007" x="155.26" y="85.265" width="54.47" height="29.47" style=""/>
  <text id="text-1007" transform="matrix(.26458 0 0 .26458 -1.2518 1.6722)" style="fill:#000000;font-family:Sans;font-size:42.667px;shape-inside:url(#rect6-3-9);stroke-linejoin:round;stroke-width:3;white-space:pre" xml:space="preserve"><tspan id="tspan14" x="650.07812" y="386.64292"><tspan id="tspan13" style="font-family:'Segoe UI'">1007</tspan></tspan></text>
 </g>
 <g id="1008" transform="translate(10.432 290.43)">
  <rect id="rect-1008" x="155.26" y="85.265" width="54.47" height="29.47" style=""/>
  <text id="text-1008" transform="matrix(.26458 0 0 .26458 -1.2518 1.6722)" style="fill:#000000;font-family:Sans;font-size:42.667px;shape-inside:url(#rect6-3-3-3);stroke-linejoin:round;stroke-width:3;white-space:pre" xml:space="preserve"><tspan id="tspan16" x="650.07812" y="386.64292"><tspan id="tspan15" style="font-family:'Segoe UI'">1008</tspan></tspan></text>
 </g>
 <g id="1009" transform="translate(95.697 45.167)">
  <rect id="rect-1009" x="155.26" y="85.265" width="54.47" height="29.47" style=""/>
  <text id="text-1009" transform="matrix(.26458 0 0 .26458 -1.2518 1.6722)" style="fill:#000000;font-family:Sans;font-size:42.667px;shape-inside:url(#rect4-3);stroke-linejoin:round;stroke-width:3;white-space:pre" xml:space="preserve"><tspan id="tspan18" x="650.07812" y="386.64292"><tspan id="tspan17" style="font-family:'Segoe UI'">1009</tspan></tspan></text>
 </g>
 <g id="1010" transform="translate(95.697 80.167)">
  <rect id="rect-1010" x="155.26" y="85.265" width="54.47" height="29.47" style=""/>
  <text id="text-1010" transform="matrix(.26458 0 0 .26458 -1.2518 1.6722)" style="fill:#000000;font-family:Sans;font-size:42.667px;shape-inside:url(#rect6-4);stroke-linejoin:round;stroke-width:3;white-space:pre" xml:space="preserve"><tspan id="tspan20" x="650.07812" y="386.64292"><tspan id="tspan19" style="font-family:'Segoe UI'">1010</tspan></tspan></text>
 </g>
 <g id="1011" transform="translate(95.697 115.17)">
  <rect id="rect-1011" x="155.26" y="85.265" width="54.47" height="29.47" style=""/>
  <text id="text-1011" transform="matrix(.26458 0 0 .26458 -1.2518 1.6722)" style="fill:#000000;font-family:Sans;font-size:42.667px;shape-inside:url(#rect6-3-2);stroke-linejoin:round;stroke-width:3;white-space:pre" xml:space="preserve"><tspan id="tspan22" x="650.07812" y="386.64292"><tspan id="tspan21" style="font-family:'Segoe UI'">1011</tspan></tspan></text>
 </g>
 <g id="1012" transform="translate(95.697 150.17)">
  <rect id="rect-1012" x="155.26" y="85.265" width="54.47" height="29.47" style=""/>
  <text id="text-1012" transform="matrix(.26458 0 0 .26458 -1.2518 1.6722)" style="fill:#000000;font-family:Sans;font-size:42.667px;shape-inside:url(#rect6-3-3-7);stroke-linejoin:round;stroke-width:3;white-space:pre" xml:space="preserve"><tspan id="tspan24" x="650.07812" y="386.64292"><tspan id="tspan23" style="font-family:'Segoe UI'">1012</tspan></tspan></text>
 </g>
 <g id="1013" transform="rotate(-90 322.8 157.37)">
  <rect id="rect-1013" x="155.26" y="85.265" width="54.47" height="29.47" style=""/>
  <text id="text-1013" transform="matrix(0 .26458 -.26458 0 281.6 -84.523)" style="fill:#000000;font-family:Sans;font-size:42.667px;shape-inside:url(#rect4-3-8);stroke-linejoin:round;stroke-width:3;white-space:pre" xml:space="preserve"><tspan id="tspan26" x="650.07812" y="386.64292"><tspan id="tspan25" style="font-family:'Segoe UI'">1013</tspan></tspan></text>
 </g>
 <g id="1014" transform="rotate(-90 340.3 139.87)">
  <rect id="rect-1014" x="155.26" y="85.265" width="54.47" height="29.47" style=""/>
  <text id="text-1014" transform="matrix(0 .26458 -.26458 0 281.64 -84.568)" style="fill:#000000;font-family:Sans;font-size:42.667px;shape-inside:url(#rect6-4-7);stroke-linejoin:round;stroke-width:3;white-space:pre" xml:space="preserve"><tspan id="tspan28" x="650.07812" y="386.64292"><tspan id="tspan27" style="font-family:'Segoe UI'">1014</tspan></tspan></text>
 </g>
 <g id="1015" transform="rotate(-90 357.8 122.37)">
  <rect id="rect-1015" x="155.26" y="85.265" width="54.47" height="29.47" style=""/>
  <text id="text-1015" transform="matrix(0 .26458 -.26458 0 280.83 -83.752)" style="fill:#000000;font-family:Sans;font-size:42.667px;shape-inside:url(#rect6-3-2-6);stroke-linejoin:round;stroke-width:3;white-space:pre" xml:space="preserve"><tspan id="tspan30" x="650.07812" y="386.64292"><tspan id="tspan29" style="font-family:'Segoe UI'">1015</tspan></tspan></text>
 </g>
 <g id="1016" transform="rotate(-90 375.3 104.87)">
  <rect id="rect-1016" x="155.26" y="85.265" width="54.47" height="29.47" style=""/>
  <text id="text-1016" transform="matrix(0 .26458 -.26458 0 281.57 -84.496)" style="fill:#000000;font-family:Sans;font-size:42.667px;shape-inside:url(#rect6-3-3-7-8);stroke-linejoin:round;stroke-width:3;white-space:pre" xml:space="preserve"><tspan id="tspan32" x="650.07812" y="386.64292"><tspan id="tspan31" style="font-family:'Segoe UI'">1016</tspan></tspan></text>
 </g>
 <g id="1017" transform="rotate(-90 365.43 200)">
  <rect id="rect-1017" x="155.26" y="85.265" width="54.47" height="29.47" style=""/>
  <text id="text-1017" transform="matrix(0 .26458 -.26458 0 281.6 -84.523)" style="fill:#000000;font-family:Sans;font-size:42.667px;shape-inside:url(#rect4-3-8-5);stroke-linejoin:round;stroke-width:3;white-space:pre" xml:space="preserve"><tspan id="tspan34" x="650.07812" y="386.64292"><tspan id="tspan33" style="font-family:'Segoe UI'">1017</tspan></tspan></text>
 </g>
 <g id="1018" transform="rotate(-90 382.93 182.5)">
  <rect id="rect-1018" x="155.26" y="85.265" width="54.47" height="29.47" style=""/>
  <text id="text-1018" transform="matrix(0 .26458 -.26458 0 281.64 -84.568)" style="fill:#000000;font-family:Sans;font-size:42.667px;shape-inside:url(#rect6-4-7-0);stroke-linejoin:round;stroke-width:3;white-space:pre" xml:space="preserve"><tspan id="tspan36" x="650.07812" y="386.64292"><tspan id="tspan35" style="font-family:'Segoe UI'">1018</tspan></tspan></text>
 </g>
 <g id="1019" transform="rotate(-90 400.43 165)">
  <rect id="rect-1019" x="155.26" y="85.265" width="54.47" height="29.47" style=""/>
  <text id="text-1019" transform="matrix(0 .26458 -.26458 0 280.83 -83.752)" style="fill:#000000;font-family:Sans;font-size:42.667px;shape-inside:url(#rect6-3-2-6-4);stroke-linejoin:round;stroke-width:3;white-space:pre" xml:space="preserve"><tspan id="tspan38" x="650.07812" y="386.64292"><tspan id="tspan37" style="font-family:'Segoe UI'">1019</tspan></tspan></text>
 </g>
 <g id="1020" transform="rotate(-90 417.93 147.5)">
  <rect id="rect-1020" x="155.26" y="85.265" width="54.47" height="29.47" style=""/>
  <text id="text-1020" transform="matrix(0 .26458 -.26458 0 281.57 -84.496)" style="fill:#000000;font-family:Sans;font-size:42.667px;shape-inside:url(#rect6-3-3-7-8-7);stroke-linejoin:round;stroke-width:3;white-space:pre" xml:space="preserve"><tspan id="tspan40" x="650.07812" y="386.64292"><tspan id="tspan39" style="font-family:'Segoe UI'">1020</tspan></tspan></text>
 </g>
</svg>
